<svg id="Capa_1" data-name="Capa 1" xmlns="http://www.w3.org/2000/svg" xmlns:xlink="http://www.w3.org/1999/xlink" viewBox="0 0 229.81 143.5"><defs><style>.cls-1{fill:none;}.cls-2{clip-path:url(#clip-path);}.cls-3{fill:#0083a5;}.cls-4{fill:#eec04d;}.cls-5{fill:#e9b949;}.cls-6{fill:#eea948;}.cls-7{fill:#f4b546;}.cls-8{fill:#f3c24f;}.cls-9{fill:#cabc54;}.cls-10{fill:#9aaa63;}.cls-11{fill:#619c80;}.cls-12{fill:#098bc9;}.cls-13{fill:#0870b4;}.cls-14{fill:#009d8b;}.cls-15{fill:#3eab75;}.cls-16{fill:#f6c648;}.cls-17{fill:#f6b547;}.cls-18{fill:#e3d64c;}.cls-19{fill:#f1b348;}.cls-20{fill:#f1db46;}.cls-21{fill:#9eb963;}.cls-22{fill:#fff;}</style><clipPath id="clip-path"><path class="cls-1" d="M167.09,52.46c-1.07-2.63-2.79-7.58-2.79-9.62,0-2.61,0-10.54-5.25-12.64a18.08,18.08,0,0,1-3.46-2,47.44,47.44,0,0,0-8-4.55,44,44,0,0,1-7.77-5c-3.47-2.59-6.46-4.82-9.5-4.82-4,0-5.53,3.25-6.57,5.4a9.59,9.59,0,0,1-1.25,2.14c-1.45-.07-5.87-2.4-9.55-5.07l-.22-.14C98.57,8,82.23,6.59,65.46,12.2c-14.94,5-28.86,15.08-39.17,28.41-6.2,8-11.7,22.58-14.35,38.06-1.77,10.3-3.69,29.74,3.3,44.23,5.14,10.66,14.22,16.37,26.28,16.53a17.72,17.72,0,0,0,17.7-17.7,14.7,14.7,0,0,0-14.68-14.68A12.27,12.27,0,0,0,32.29,119.3a10.33,10.33,0,0,0,10.32,10.32,8.78,8.78,0,0,0,8.76-8.77,2.56,2.56,0,1,0-5.12,0,3.65,3.65,0,0,1-3.64,3.65,5.2,5.2,0,0,1-5.2-5.2,7.14,7.14,0,0,1,7.13-7.13,9.57,9.57,0,0,1,9.56,9.56,12.6,12.6,0,0,1-12.55,12.58c-10.1-.13-17.4-4.72-21.7-13.63-4.72-9.79-5.74-24.4-2.87-41.15C19.47,65.06,24.71,51,30.34,43.74c9.56-12.35,23-22.08,36.74-26.69,10.67-3.57,26.78-5.86,43,3.44.52.37,2.74,1.93,5.27,3.35,4.69,2.63,7.69,3.23,9.72,2a9.63,9.63,0,0,0,3.31-4.39c1-2,1.35-2.5,2-2.5,1.34,0,4.05,2,6.44,3.8a47.85,47.85,0,0,0,8.73,5.57,42.35,42.35,0,0,1,7.25,4.12A22.56,22.56,0,0,0,157.15,35c.48.19,2,1.32,2,7.89,0,2.87,1.71,7.77,2.63,10.19l-4.56,6-.09.14H116.58a2.56,2.56,0,1,0,0,5.11h41.58a2.56,2.56,0,0,0,1.94-.88,2.09,2.09,0,0,0,.24-.28L166.77,55A2.54,2.54,0,0,0,167.09,52.46Z"/></clipPath></defs><g class="cls-2"><polygon class="cls-3" points="-0.28 100.62 2.72 123.27 35.84 112.86 -0.28 100.62"/><polygon class="cls-4" points="14.4 35.45 47.68 70.69 61.03 43.98 14.4 35.45"/><polygon class="cls-5" points="14.4 35.45 1.27 55.66 47.68 70.69 14.4 35.45"/><polygon class="cls-6" points="14.4 35.45 61.03 43.98 69.88 7.25 14.4 35.45"/><polygon class="cls-7" points="69.88 7.25 99.91 39.19 121.46 1.8 69.88 7.25"/><polygon class="cls-8" points="69.88 7.25 61.03 43.98 99.91 39.19 69.88 7.25"/><polygon class="cls-9" points="-32.11 44.76 21.08 83.04 47.68 70.69 -32.11 44.76"/><polygon class="cls-10" points="-1.78 66.58 -0.28 100.62 21.08 83.04 -1.78 66.58"/><polygon class="cls-11" points="35.84 112.86 21.08 83.04 -0.28 100.62 35.84 112.86"/><polygon class="cls-12" points="35.84 112.86 57.33 154.5 85.83 131.05 35.84 112.86"/><polygon class="cls-13" points="2.72 123.27 35.84 112.86 57.33 154.5 2.72 123.27"/><polygon class="cls-14" points="35.84 112.86 85.83 131.05 72.64 99.95 35.84 112.86"/><polygon class="cls-15" points="35.84 112.86 72.64 99.95 47.68 70.69 35.84 112.86"/><polygon class="cls-16" points="99.91 39.19 136.8 47.07 121.46 1.8 99.91 39.19"/><polygon class="cls-17" points="121.46 1.8 172.21 20.05 136.8 47.07 121.46 1.8"/><polygon class="cls-18" points="116.34 75.92 136.8 47.07 165.47 78.59 116.34 75.92"/><polygon class="cls-19" points="165.47 78.59 136.8 47.07 172.21 20.05 165.47 78.59"/><polygon class="cls-20" points="99.91 39.19 136.8 47.07 116.34 75.92 99.91 39.19"/><polygon class="cls-21" points="35.84 112.86 47.68 70.69 21.08 83.04 35.84 112.86"/></g><path class="cls-22" d="M146.19,34.64A7.85,7.85,0,1,0,154,42.48,7.85,7.85,0,0,0,146.19,34.64Zm3.17,8.07a1.88,1.88,0,1,1,1.89-1.88A1.88,1.88,0,0,1,149.36,42.71Z"/><path class="cls-22" d="M50.49,76.36H43.05v20H40.38v-20H32.93V73.88H50.49Z"/><path class="cls-22" d="M59.62,73.88h2.52L71.71,96.4H68.59L66.3,90.86H55L52.72,96.4h-3Zm1.21,3.43h-.06L56.09,88.38h9.2Z"/><path class="cls-22" d="M76.29,73.88H79v20H89.27V96.4h-13Z"/><path class="cls-22" d="M93.79,73.88h14.15v2.48H96.46v7.06h10.72V85.9H96.46v8h12.05V96.4H93.79Z"/><path class="cls-22" d="M114.24,73.88h3.37l13,18.7h.06V73.88h2.68V96.4H130L117,77.69h-.06V96.4h-2.67Z"/><path class="cls-22" d="M155.68,76.36h-7.44v20h-2.67v-20h-7.44V73.88h17.55Z"/><path class="cls-22" d="M170.89,97a12.25,12.25,0,0,1-4.72-.89,11.41,11.41,0,0,1-3.73-2.47A11,11,0,0,1,160,89.86a13.13,13.13,0,0,1,0-9.45,11,11,0,0,1,2.44-3.75,11.41,11.41,0,0,1,3.73-2.47,13,13,0,0,1,9.44,0,11.36,11.36,0,0,1,3.72,2.47,11,11,0,0,1,2.45,3.75,13.13,13.13,0,0,1,0,9.45,11,11,0,0,1-2.45,3.75,11.36,11.36,0,0,1-3.72,2.47A12.25,12.25,0,0,1,170.89,97Zm0-2.48a8.89,8.89,0,0,0,3.61-.73,8.5,8.5,0,0,0,2.81-2,9,9,0,0,0,1.83-3,10.4,10.4,0,0,0,0-7.29,9,9,0,0,0-1.83-3,8.33,8.33,0,0,0-2.81-2,9.18,9.18,0,0,0-7.22,0,8.47,8.47,0,0,0-2.82,2,9.38,9.38,0,0,0-1.83,3,10.55,10.55,0,0,0,0,7.29,9.38,9.38,0,0,0,1.83,3,8.64,8.64,0,0,0,2.82,2A8.85,8.85,0,0,0,170.89,94.49Z"/><path class="cls-22" d="M202.83,78.27H196.4V73.88h17.81v4.39h-6.42V96.4h-5Z"/><path class="cls-22" d="M218.25,73.88h5V96.4h-5Z"/><path class="cls-22" d="M198.05,111.11c0-.39,0-1,0-1.5v-7h1.05v3.64h0a2.15,2.15,0,0,1,2-1.07c1.44,0,2.46,1.2,2.44,3,0,2.07-1.3,3.1-2.6,3.1a2.06,2.06,0,0,1-1.94-1.09h0l0,1Zm1.1-2.33a2.34,2.34,0,0,0,0,.39,1.64,1.64,0,0,0,1.59,1.23c1.1,0,1.76-.9,1.76-2.23,0-1.16-.6-2.16-1.73-2.16a1.68,1.68,0,0,0-1.6,1.3,1.71,1.71,0,0,0-.06.43Z"/><path class="cls-22" d="M205.23,105.31l1.27,3.43c.13.38.28.84.37,1.18h0c.1-.34.22-.79.37-1.21l1.15-3.4h1.12L208,109.44c-.75,2-1.27,3-2,3.64a2.9,2.9,0,0,1-1.29.68l-.27-.89a2.8,2.8,0,0,0,.93-.51,3.32,3.32,0,0,0,.88-1.18.69.69,0,0,0,.09-.25,1.18,1.18,0,0,0-.07-.27l-2.15-5.35Z"/><path class="cls-22" d="M213.08,103h1v3.9h0c.21-.32.43-.6.63-.87l2.47-3h1.3l-2.93,3.43,3.16,4.65h-1.24l-2.66-4-.77.89v3.08h-1Z"/><path class="cls-22" d="M224.27,103.32V104l-3.39,7.1h-1.09l3.38-6.89v0h-3.82v-.87Z"/></svg>