<?xml version="1.0" encoding="utf-8"?>
<!-- Generator: Adobe Illustrator 24.1.0, SVG Export Plug-In . SVG Version: 6.00 Build 0)  -->
<svg version="1.1" id="Capa_1" xmlns="http://www.w3.org/2000/svg" xmlns:xlink="http://www.w3.org/1999/xlink" x="0px" y="0px"
	 viewBox="0 0 85 36" style="enable-background:new 0 0 85 36;" xml:space="preserve">
<style type="text/css">
	.st0{fill:#E7E8ED;}
	.st1{fill:#FFFFFF;}
</style>
<g>
	<g>
		<path class="st0" d="M23.6,24.2l5.1-8.9l0.1-0.1c0.1-0.1,0.1-0.2,0.2-0.3c0.6-1.2,0.9-2.5,0.8-3.9l0-0.1c-0.1-1-0.4-1.9-0.8-2.7
			c-0.2-0.4-0.5-0.9-0.8-1.3c-0.2-0.2-0.4-0.4-0.6-0.6l0,0c-0.5-0.5-1.1-0.9-1.8-1.3c-0.4-0.2-0.8-0.3-1.2-0.5l0,0l-0.1,0
			c0,0,0,0,0,0l-0.5-0.2l0,0c-0.8-0.2-1.5-0.2-2.3-0.1l0,0l-0.4,0.1c0,0,0,0,0,0l-0.1,0l0,0c-1,0.2-2,0.6-2.9,1.2l0,0l-0.4,0.3
			c0,0,0,0,0,0l-0.1,0.1l0,0c-0.6,0.5-1,1-1.5,1.6l0,0l-1.6,2.7c0-0.1,0-0.2-0.1-0.3c-0.1-0.4-0.2-0.8-0.4-1.2
			c-0.2-0.4-0.4-0.8-0.6-1.2l0,0l0-0.1c0,0,0,0,0,0L13,6.6l0,0.1c-0.6-0.7-1.4-1.3-2.3-1.8C10.4,4.7,10,4.6,9.7,4.5c0,0,0,0,0,0l0,0
			L9.3,4.4c0,0,0,0,0,0l-0.1,0l0,0C7.4,3.9,5.6,4.1,4,4.9C3.7,5.1,3.5,5.3,3.2,5.5l0,0L3,5.6c0,0,0,0,0,0L2.8,5.7l0,0
			C2,6.4,1.3,7.2,0.8,8.2c-1,2-1.1,4.3-0.2,6.3c0.1,0.3,0.3,0.6,0.5,0.9l0,0l0.1,0.1c0,0,0,0,0,0l0.2,0.3l0,0
			c0.2,0.3,0.5,0.6,0.7,0.9c0.3,0.4,0.7,0.7,1.1,0.9C3.5,17.8,3.8,18,4,18.1c0.2,0.1,0.3,0.2,0.5,0.2c0.9,0.4,1.9,0.6,2.9,0.6
			c0.2,0,0.4,0,0.6,0l0,0l0.2,0c0,0,0,0,0,0l0.2,0l0,0c0.4-0.1,0.9-0.2,1.3-0.3c0,0,0,0,0,0l-1.2,2.1l-0.1,0.1
			c-0.1,0.1-0.1,0.2-0.2,0.3l0,0l0,0c0,0,0,0,0,0l0,0l0,0c-0.7,1.3-0.9,2.8-0.7,4.3c0,0.4,0.1,0.8,0.2,1.2c0.2,0.8,0.6,1.5,1.1,2.2
			l0,0l0.1,0.1c0,0,0,0,0,0l0.2,0.3l0,0c0.1,0.1,0.2,0.3,0.3,0.4c0.5,0.6,1.1,1,1.8,1.4c0.1,0,0.2,0.1,0.2,0.1
			c0.1,0,0.1,0.1,0.2,0.1v0l0.1,0c0,0,0,0,0.1,0l0.3,0.1l0,0c0.9,0.3,1.8,0.5,2.7,0.5c0.4,0,0.9,0,1.3-0.1l0,0l0.1,0c0,0,0,0,0,0
			l0.7-0.1l-0.1,0c0.5-0.1,1-0.3,1.5-0.6c1-0.6,1.9-1.4,2.6-2.4l0,0l0,0l0.2-0.3l0.4-0.7l-0.1,0.1L23.6,24.2L23.6,24.2z M25.5,5.4
			c0.6,0.3,1.2,0.7,1.6,1.2l0.1,0.1c0.2,0.2,0.3,0.4,0.5,0.6c0.3,0.4,0.6,0.8,0.8,1.2c0.4,0.8,0.7,1.7,0.7,2.6l0,0.1
			c0.1,1.3-0.2,2.5-0.7,3.6c-0.1,0.1-0.1,0.2-0.2,0.3l-0.2,0.3l0,0l-5.4,9.3c-0.2,0.1-0.3,0.2-0.5,0.2C22.2,24.9,22,25,21.8,25
			c0,0,0,0-0.1,0c-0.2,0-0.3,0.1-0.4,0.1c0,0,0,0,0,0c-0.2,0-0.3-0.1-0.3-0.2c-0.1-0.1-0.1-0.2-0.1-0.3c0,0,0,0,0-0.1
			c0-0.1,0-0.2-0.1-0.4c0,0,0-0.1,0-0.1c0-0.1,0-0.3,0-0.5c0,0,0-0.1,0-0.2c0-0.2,0-0.3,0.1-0.5c0-0.1,0-0.2,0-0.2
			c0-0.2,0.1-0.4,0.1-0.6c0-0.1,0-0.2,0.1-0.3c0-0.2,0.1-0.4,0.1-0.6c0-0.1,0.1-0.3,0.1-0.4c0.1-0.2,0.1-0.4,0.2-0.7
			c0-0.1,0.1-0.3,0.1-0.4c0.1-0.2,0.1-0.5,0.2-0.7l0,0V19c0.1-0.4,0.2-0.8,0.4-1.2c0.4-1.1,0.7-2.3,1.1-3.5c0.3-1,0.7-2,0.9-2.9
			c0,0,0,0,0-0.1c0.1-0.3,0.2-0.5,0.2-0.8c0.3-1.1,0.6-2.1,0.7-2.8c0-0.2,0-0.4,0-0.5c0,0,0,0,0-0.1c0,0,0,0,0-0.1
			c0-0.2,0-0.4,0-0.5c0,0,0,0,0,0c0-0.3-0.1-0.6-0.2-0.9c0-0.1-0.1-0.2-0.1-0.3c0-0.1-0.1-0.2-0.1-0.3C25,5.1,25.3,5.2,25.5,5.4z
			 M13.8,8.8c0.2,0.4,0.3,0.8,0.4,1.1c0.1,0.3,0.1,0.6,0.1,0.8l0,0.1l0.3,0.3l1.8-3.1l0.1-0.1c0.3-0.5,0.7-1,1.2-1.4
			c0,0.2,0,0.3-0.1,0.5c0,0.2,0,0.4-0.1,0.6c0,0.3-0.1,0.6-0.1,0.8c0,0.2-0.1,0.4-0.1,0.7c-0.1,0.3-0.1,0.6-0.2,0.9
			c0,0.2-0.1,0.4-0.1,0.7c-0.1,0.5-0.2,1.1-0.4,1.6c-0.6,2.5-1.5,5.2-2.5,8.1c-0.9,2.5-1.6,4.8-2,6.8C12,27.5,12,27.7,12,28
			c-0.1-0.1-0.1-0.1-0.2-0.2c0,0,0,0,0,0c-0.1-0.1-0.1-0.2-0.2-0.2c-0.1-0.2-0.2-0.3-0.4-0.5c-0.1-0.1-0.1-0.2-0.2-0.3
			c-0.1-0.1-0.2-0.3-0.3-0.4c0.2-0.4,0.3-0.8,0.5-1.2c0.1-0.3,0.2-0.5,0.3-0.8c0.2-0.5,0.3-1,0.5-1.5c0.1-0.2,0.2-0.5,0.2-0.7
			c0.2-0.6,0.3-1.1,0.5-1.7c0-0.2,0.1-0.3,0.1-0.5c0.2-0.8,0.3-1.5,0.4-2.3c0.2-1.4,0.3-2.8,0.4-4.3c0-0.6,0-1.2,0-1.8v0v0
			c0-0.8,0-1.5-0.1-2.3c0,0,0,0,0,0c0-0.2,0-0.4,0-0.6C13.7,8.6,13.7,8.7,13.8,8.8z M4.2,5.4c1.4-0.7,3-1,4.6-0.6L5.6,9.2
			C5.4,8.9,5.3,8.7,5.1,8.4C5,8.2,4.9,8,4.8,7.8c-0.3-0.5-0.6-1-1-1.5C3.7,6.2,3.6,6,3.5,5.8C3.7,5.7,4,5.5,4.2,5.4z M1.4,15
			c-0.1-0.2-0.3-0.5-0.4-0.7c-0.8-1.9-0.8-4.1,0.2-5.9c0.5-0.9,1.1-1.7,1.8-2.3c0.1,0.1,0.2,0.3,0.3,0.4c0,0,0,0.1,0.1,0.1
			c0.1,0.1,0.1,0.1,0.1,0.2c0.3,0.4,0.6,0.9,0.8,1.3c0.1,0.2,0.2,0.3,0.3,0.5c0.2,0.3,0.4,0.7,0.6,1L2.9,13L1.4,15z M4.7,17.9
			c-0.2-0.1-0.3-0.1-0.5-0.2c-0.2-0.1-0.5-0.3-0.7-0.4c-0.4-0.3-0.7-0.6-1.1-0.9c-0.3-0.3-0.5-0.6-0.8-0.9l2.1-2.9l1.7-2.4
			c0,0.1,0.1,0.1,0.1,0.2c0.3,0.6,0.5,1.1,0.8,1.7c0,0,0,0,0,0l0,0l0.2,0.4c0,0,0,0,0,0.1c0.2,0.6,0.4,1.2,0.6,1.7
			c0.2,0.7,0.3,1.3,0.5,2c0,0,0,0.1,0,0.1c0.1,0.6,0.2,1.3,0.3,1.9c0,0,0,0.1,0,0.1C6.8,18.5,5.7,18.3,4.7,17.9z M9.1,20.6l1.8-3.1
			l-0.7,0.3C10,17.9,9.8,18,9.6,18.1c-0.4,0.1-0.8,0.2-1.2,0.3c0,0,0-0.1,0-0.1c-0.1-0.6-0.2-1.3-0.3-1.9c0-0.1,0-0.1,0-0.2
			c-0.1-0.7-0.3-1.3-0.5-2C7.4,13.5,7.2,13,7,12.4c0,0,0,0,0,0c0,0,0,0,0,0c0,0,0,0,0,0l0,0c0-0.1-0.1-0.1-0.1-0.2l-0.1-0.2
			c-0.3-0.7-0.6-1.4-0.9-2c0,0,0-0.1-0.1-0.1l3.5-4.8c0.1,0,0.1,0,0.2,0.1c0.4,0.1,0.7,0.3,1,0.4c0.8,0.4,1.5,1,2.1,1.7
			c0.2,0.2,0.3,0.4,0.4,0.6c0,0.5,0.1,1,0.1,1.5c0,0.8,0.1,1.5,0.1,2.3c0,0.6,0,1.2,0,1.8c-0.1,1.4-0.2,2.9-0.4,4.2
			c-0.1,0.8-0.3,1.5-0.4,2.3c-0.1,0.3-0.1,0.6-0.2,0.8c-0.1,0.5-0.2,0.9-0.4,1.3c-0.1,0.3-0.2,0.6-0.3,0.9c-0.1,0.4-0.3,0.8-0.4,1.2
			c-0.1,0.3-0.2,0.6-0.4,0.9c-0.1,0.3-0.3,0.6-0.4,0.9c-0.1-0.1-0.2-0.3-0.2-0.5C10.1,25.2,10,25,10,24.9c-0.2-0.4-0.3-0.7-0.5-1.1
			c0,0,0,0,0,0c-0.1-0.2-0.2-0.5-0.3-0.7c-0.1-0.3-0.2-0.6-0.3-0.9c0-0.1,0-0.1,0-0.2c-0.1-0.2-0.1-0.5-0.2-0.7
			C8.8,21.1,8.9,21,9,20.9L9.1,20.6L9.1,20.6z M8,25.3c-0.1-1.2,0-2.3,0.4-3.4c0,0,0,0.1,0,0.1c0.1,0.4,0.2,0.8,0.3,1.1
			c0.1,0.3,0.2,0.5,0.3,0.8v0c0.2,0.4,0.3,0.9,0.5,1.3c0,0.1,0.1,0.2,0.2,0.3c0.1,0.3,0.3,0.6,0.4,0.8c0,0,0,0.1-0.1,0.1
			c-0.3,0.6-0.6,1.2-0.9,1.7c0,0.1-0.1,0.1-0.1,0.2c-0.4-0.6-0.7-1.2-0.9-1.9C8.1,26.1,8.1,25.7,8,25.3z M11.5,30.5
			c-0.6-0.4-1.2-0.8-1.7-1.3c-0.1-0.1-0.3-0.3-0.4-0.5c0,0,0-0.1,0.1-0.1c0.3-0.5,0.6-1,0.9-1.6c0-0.1,0.1-0.1,0.1-0.2l0,0l0,0
			c0,0,0.1,0.1,0.1,0.1c0.3,0.4,0.5,0.7,0.8,1.1c0,0,0,0,0,0c0.2,0.2,0.3,0.4,0.5,0.6c-0.1,0.5-0.1,0.9-0.1,1.4c0,0.1,0,0.2,0,0.3
			c0,0,0,0.1,0,0.1c0,0.1,0,0.2,0,0.3C11.6,30.6,11.6,30.6,11.5,30.5z M12.2,30.8c0-0.2,0-0.4,0-0.5c0-0.4,0.1-0.8,0.1-1.2
			c0.2,0.2,0.3,0.3,0.5,0.5v0c0,0,0,0,0,0c0.3,0.3,0.7,0.6,1.1,0.8c0.1,0.1,0.2,0.1,0.2,0.2c0.4,0.3,0.8,0.5,1.2,0.7c0,0,0,0,0.1,0
			C14.3,31.5,13.2,31.3,12.2,30.8z M18.2,30.6c-0.6,0.3-1.3,0.6-1.9,0.7c-0.4-0.2-0.7-0.4-1.1-0.6c-0.2-0.1-0.4-0.2-0.5-0.3
			c-0.4-0.3-0.8-0.6-1.1-0.9c-0.1-0.1-0.2-0.2-0.3-0.3c0,0-0.1-0.1-0.1-0.1c-0.2-0.2-0.5-0.4-0.7-0.7c0-0.3,0.1-0.7,0.2-1.1
			c0,0,0,0,0-0.1c0.1-0.3,0.1-0.7,0.2-1.1c0-0.2,0.1-0.3,0.1-0.5c0,0,0,0,0,0c0.3-1.1,0.6-2.2,1-3.3c0.2-0.6,0.4-1.2,0.6-1.8
			c0.5-1.5,1-2.9,1.4-4.2c0.2-0.6,0.4-1.2,0.5-1.7c0-0.1,0-0.2,0.1-0.2c0.1-0.3,0.1-0.5,0.2-0.7c0.1-0.4,0.2-0.8,0.3-1.2
			c0.3-1.2,0.5-2.3,0.7-3.4c0-0.1,0-0.3,0.1-0.4c0.1-0.4,0.1-0.8,0.2-1.2c0-0.3,0.1-0.5,0.1-0.8c0-0.2,0.1-0.4,0.1-0.6
			c0.8-0.6,1.7-1.1,2.7-1.3c-0.5,1.1-1.1,2.7-1.9,4.6c0,0,0,0,0,0.1c-2.2,5.6-3.7,9.9-4.2,12.6c-0.1,0.5-0.2,1.1-0.3,1.7
			c-0.1,0.6-0.1,1.2-0.2,1.8c0,0.9,0.1,1.6,0.4,2.2c0.5,1.1,1.4,1.7,2.7,1.9c0.2,0,0.4,0,0.5,0c0,0,0,0,0.1,0c0,0,0.1,0,0.1,0
			c0.1,0,0.3,0,0.4,0c0.1,0,0.1,0,0.2,0c0.2,0,0.4-0.1,0.6-0.1c0.2-0.1,0.5-0.2,0.7-0.3C19.5,29.7,18.8,30.2,18.2,30.6z M21.3,19.2
			c0,0.2-0.1,0.3-0.1,0.5c-0.1,0.2-0.1,0.4-0.2,0.6c-0.1,0.2-0.1,0.4-0.2,0.6c0,0.2-0.1,0.3-0.1,0.5c0,0.2-0.1,0.4-0.1,0.6
			c0,0.1-0.1,0.3-0.1,0.4c0,0.2-0.1,0.3-0.1,0.5c0,0.1,0,0.2,0,0.3c0,0.2,0,0.3,0,0.4c0,0.1,0,0.2,0,0.3c0,0.1,0,0.2,0,0.4
			c0,0.1,0,0.1,0,0.2c0,0.1,0,0.2,0.1,0.3c0,0,0,0.1,0,0.1c0,0.1,0.1,0.2,0.2,0.3c0.2,0.2,0.4,0.4,0.7,0.4c0,0,0,0,0,0
			c0,0,0.1,0,0.1,0c0.1,0,0.2,0,0.3-0.1c0.1,0,0.2-0.1,0.3-0.1c0.1,0,0.1,0,0.2-0.1L20.8,28l0,0.1c0,0-0.1,0.1-0.1,0.1
			c-0.3,0.2-0.5,0.3-0.8,0.4c0,0,0,0,0,0c-0.3,0.1-0.5,0.2-0.8,0.3c-0.5,0.1-0.9,0.2-1.3,0.2c-0.1,0-0.2,0-0.4,0
			c-1.2-0.2-1.9-0.7-2.3-1.6c-0.2-0.5-0.4-1.2-0.4-2c0-0.6,0.1-1.2,0.1-1.7c0.1-0.6,0.2-1.1,0.3-1.7c0.6-2.6,2-6.9,4.2-12.5
			c0,0,0,0,0,0c0.3-0.8,0.6-1.6,1-2.4c0,0,0,0,0,0c0.3-0.8,0.7-1.7,1-2.5c0,0,0,0,0,0c0.9-0.1,1.9-0.1,2.8,0.2
			c0.1,0.2,0.1,0.3,0.2,0.5c0,0.1,0.1,0.2,0.1,0.3c0.1,0.3,0.2,0.6,0.2,0.9c0,0.2,0,0.3,0,0.5c0,0,0,0,0,0.1c0,0,0,0,0,0.1
			c0,0.2,0,0.3,0,0.5c0,0.1,0,0.2,0,0.2c-0.2,1.4-1,3.7-1.8,6.2c-0.4,1.2-0.8,2.3-1.1,3.5c-0.1,0.4-0.2,0.7-0.3,1.1L21.3,19.2z"/>
		<path class="st0" d="M29.5,24.6c-2,0-3.6,1.6-3.6,3.6s1.6,3.6,3.6,3.6s3.6-1.6,3.6-3.6S31.5,24.6,29.5,24.6z M29.5,31.4
			c-1.7,0-3.2-1.4-3.2-3.2c0-1.7,1.4-3.2,3.2-3.2c1.7,0,3.2,1.4,3.2,3.2C32.7,30,31.2,31.4,29.5,31.4z"/>
	</g>
	<path class="st1" d="M40.4,23.1c0.9,0,1.2-0.7,1.2-0.8c0.1-0.1,2.6-6.9,2.6-6.9c0,0,0-0.1,0-0.1c0-0.1-0.1-0.2-0.2-0.2h-1.5
		c-0.1,0-0.3,0.1-0.3,0.2c0,0.1-1.8,5.4-1.8,5.4c0,0-1.8-5.3-1.8-5.4c0-0.1-0.2-0.2-0.3-0.2h-1.5c-0.1,0-0.2,0.1-0.2,0.2
		c0,0,0,0.1,0,0.1c0,0,2.5,6.8,2.6,6.9C39.2,22.4,39.5,23.1,40.4,23.1"/>
	<path class="st1" d="M51.8,18c0-0.3,0.1-0.5,0.3-0.7c0.2-0.2,0.4-0.3,0.7-0.3h2c0.1,0,0.2,0,0.3-0.1c0.1-0.1,0.1-0.2,0.1-0.2l0-1.3
		c0-0.1,0-0.2-0.1-0.2c-0.1-0.1-0.1-0.1-0.2-0.1l0,0h-1.9c-0.9,0-1.7,0.2-2.2,0.7c-0.5,0.5-0.9,1.3-0.9,2.4v4.5c0,0.1,0,0.2,0.1,0.3
		c0.1,0.1,0.2,0.1,0.2,0.1l1.3,0c0.1,0,0.2,0,0.2-0.1c0.1-0.1,0.1-0.1,0.1-0.2l0,0L51.8,18z"/>
	<path class="st1" d="M45.1,13.1c0-0.1,0-0.2,0.1-0.3c0.1-0.1,0.2-0.1,0.2-0.1h1.3c0.1,0,0.2,0,0.2,0.1C47,12.9,47,13,47,13.1v2
		l1.6,0c0.1,0,0.2,0,0.3,0.1c0.1,0.1,0.1,0.2,0.1,0.2v1.3c0,0.1,0,0.2-0.1,0.2c-0.1,0.1-0.2,0.1-0.3,0.1l-1.6,0v3.2
		c0,0.3,0.1,0.5,0.3,0.7c0.2,0.2,0.4,0.3,0.7,0.3l0.7,0c0.1,0,0.2,0,0.3,0.1c0.1,0.1,0.1,0.2,0.1,0.2l0,1.3c0,0.1,0,0.2-0.1,0.2
		c-0.1,0.1-0.1,0.1-0.2,0.1l-0.5,0c-0.9,0-1.7-0.2-2.2-0.7c-0.5-0.5-0.8-1.3-0.8-2.4V13.1z"/>
	<path class="st1" d="M60.6,15.8c1.3,0,2.3,0.7,2.8,1.9c0,0,0,0.1,0.1,0.1h0.6c0,0,0.1,0,0.1,0c0,0,0-0.1,0-0.1
		c-0.5-1.6-1.9-2.6-3.5-2.6c-2.1,0-3.8,1.8-3.8,4c0,2.2,1.7,4,3.8,4c1.7,0,3-1,3.5-2.6c0,0,0-0.1,0-0.1c0,0,0,0-0.1,0h-0.6
		c0,0-0.1,0-0.1,0.1c-0.4,1.2-1.5,1.9-2.8,1.9c-1.7,0-3.1-1.5-3.1-3.3C57.5,17.3,58.9,15.8,60.6,15.8"/>
	<path class="st1" d="M81.5,15.1c-1.1,0-2.1,0.6-2.5,1.5c-0.5-0.9-1.5-1.5-2.6-1.5c-0.9,0-1.7,0.4-2.2,1v-0.7c0-0.1,0-0.1-0.1-0.1
		h-0.5c-0.1,0-0.1,0-0.1,0.1v7.5c0,0.1,0,0.1,0.1,0.1H74c0.1,0,0.1,0,0.1-0.1V18c0-1.3,0.9-2.2,2.2-2.2c1.3,0,2.2,0.9,2.2,2.2v4.8
		c0,0.1,0,0.1,0.1,0.1h0.5c0.1,0,0.1,0,0.1-0.1V18c0-1.3,0.9-2.2,2.2-2.2c1.3,0,2.2,0.9,2.2,2.2v4.8c0,0.1,0,0.1,0.1,0.1h0.5
		c0.1,0,0.1,0,0.1-0.1V18C84.4,16.3,83.2,15.1,81.5,15.1"/>
	<path class="st1" d="M68.7,22.4c-1.8,0-3.3-1.5-3.3-3.3c0-1.8,1.5-3.3,3.3-3.3c1.8,0,3.3,1.5,3.3,3.3C72,20.9,70.5,22.4,68.7,22.4
		 M68.7,15.1c-2.2,0-4,1.8-4,4c0,2.2,1.8,4,4,4c2.2,0,4-1.8,4-4C72.7,16.9,70.9,15.1,68.7,15.1"/>
	<path class="st1" d="M56.1,22.2c0-0.5-0.4-1-1-1c-0.5,0-1,0.4-1,1c0,0.5,0.4,1,1,1C55.6,23.1,56.1,22.7,56.1,22.2"/>
</g>
</svg>
