<svg id="Capa_1" data-name="Capa 1" xmlns="http://www.w3.org/2000/svg" viewBox="0 0 85 36"><defs><style>.cls-1,.cls-2{fill:#fff;}.cls-1{fill-rule:evenodd;}</style></defs><path class="cls-1" d="M10.27,18.58a28.39,28.39,0,0,1-3.19.57,4.8,4.8,0,0,1-2.86-.79,6.94,6.94,0,0,1-3-2.89c-.55-1-.32-1.23-.15-1.54A1.52,1.52,0,0,1,2,13.31c.33-.09,5.94-1.44,6.7-1.57S12.37,11,12.37,11s2-5.37,2.26-5.92S16.27,1,17.24.53A4.95,4.95,0,0,1,21.18.31a4.31,4.31,0,0,1,1.68,1.4,4.24,4.24,0,0,1,.79,2c.14,1.4-1.92,6.56-1.92,6.56a45.67,45.67,0,0,1,6.34,0,9.13,9.13,0,0,1,4.62,1.6,4.26,4.26,0,0,1,1.7,3.45c.09,1.36-.48,1.32-.7,1.41s-7-.56-8.48-.53-5.52.45-5.52.45-1.37,4-1.75,5.74-1,4.45-1.07,5.3S16.66,30,16,30.53s-2.88.52-4.18-.32-3.34-3.69-3.36-5.58S10.27,18.58,10.27,18.58Z"/><path class="cls-2" d="M40.49,34.77a1.33,1.33,0,0,1-.92-.41,1.3,1.3,0,0,1-.36-.94V27.76a7.17,7.17,0,0,0-.08-1,2.67,2.67,0,0,0-.27-.87,1.66,1.66,0,0,0-.54-.58,1.57,1.57,0,0,0-.88-.21,1.68,1.68,0,0,0-.9.23,1.9,1.9,0,0,0-.64.62,2.89,2.89,0,0,0-.39.88,4.57,4.57,0,0,0-.12,1.05v5.58a1.33,1.33,0,0,1-.37.93,1.28,1.28,0,0,1-.91.41H32.62a1.33,1.33,0,0,1-1.28-1.34v-6a3.24,3.24,0,0,0-.42-1.75,1.51,1.51,0,0,0-.59-.5,1.48,1.48,0,0,0-.75-.14,1.73,1.73,0,0,0-.86.2,1.67,1.67,0,0,0-.64.6,3.37,3.37,0,0,0-.53,2v5.6a1.33,1.33,0,0,1-.37.93,1.29,1.29,0,0,1-.92.41H24.71a1.3,1.3,0,0,1-1.28-1.34V23.28a1.31,1.31,0,0,1,1.28-1.34h1.36a1.31,1.31,0,0,1,1.28,1.34v.44h.06a4.05,4.05,0,0,1,.55-.8,3.54,3.54,0,0,1,.82-.68,4.06,4.06,0,0,1,1.06-.48,4.55,4.55,0,0,1,1.28-.18,4.22,4.22,0,0,1,2.27.57,3.49,3.49,0,0,1,.62.47,1.28,1.28,0,0,0,1.76,0,4.21,4.21,0,0,1,3-1.08,4.31,4.31,0,0,1,2.12.48,4,4,0,0,1,1.38,1.23A5.31,5.31,0,0,1,43,25a7.6,7.6,0,0,1,.23,1.84v6.59A1.3,1.3,0,0,1,42,34.76Zm18.33-6.48a7,7,0,0,1-.56,2.85,6.4,6.4,0,0,1-1.55,2.16,6.89,6.89,0,0,1-2.28,1.4,8,8,0,0,1-5.5,0,6.82,6.82,0,0,1-2.26-1.37,6.35,6.35,0,0,1-1.53-2.17,7.34,7.34,0,0,1,0-5.67,6,6,0,0,1,1.53-2.14A6.58,6.58,0,0,1,48.93,22a8.36,8.36,0,0,1,5.5,0,6.69,6.69,0,0,1,2.27,1.34,6.08,6.08,0,0,1,1.54,2.14A6.76,6.76,0,0,1,58.82,28.29Zm-4.07,0a3.84,3.84,0,0,0-.2-1.21A3.26,3.26,0,0,0,54,26a2.89,2.89,0,0,0-1-.73,3.1,3.1,0,0,0-2.62,0,2.69,2.69,0,0,0-.94.73,3,3,0,0,0-.57,1,3.85,3.85,0,0,0,0,2.42,3.19,3.19,0,0,0,.58,1.07,2.84,2.84,0,0,0,1,.76,2.91,2.91,0,0,0,1.92.25,3,3,0,0,0,1.66-1,3.19,3.19,0,0,0,.58-1.07A3.83,3.83,0,0,0,54.75,28.29Zm12.44,6.47H64.46a1.34,1.34,0,0,1-.75-.24,1.3,1.3,0,0,1-.5-.61l-4-10.14a1.26,1.26,0,0,1-.08-.64,1.28,1.28,0,0,1,.22-.6,1.35,1.35,0,0,1,.48-.44,1.39,1.39,0,0,1,.63-.15h1.72a1.32,1.32,0,0,1,1.28.93l2.4,7.37H66l2.41-7.37a1.33,1.33,0,0,1,.49-.68,1.37,1.37,0,0,1,.79-.25H71.2a1.39,1.39,0,0,1,.63.15,1.35,1.35,0,0,1,.48.44,1.28,1.28,0,0,1,.22.6,1.26,1.26,0,0,1-.08.64l-1.8,4.58-2.19,5.57a1.38,1.38,0,0,1-.5.62,1.42,1.42,0,0,1-.77.23ZM78.35,17.83a2.23,2.23,0,0,1-.19.92,2.26,2.26,0,0,1-.52.74,2.33,2.33,0,0,1-.76.48,2.53,2.53,0,0,1-.94.18A2.33,2.33,0,0,1,75,20a2.58,2.58,0,0,1-.79-.52,2.26,2.26,0,0,1-.52-.74,2.15,2.15,0,0,1-.17-.9A2.23,2.23,0,0,1,73.7,17a2.09,2.09,0,0,1,.51-.74,2.75,2.75,0,0,1,.77-.5,2.33,2.33,0,0,1,1-.19,2.53,2.53,0,0,1,.94.18,2.32,2.32,0,0,1,1.28,1.22,2.1,2.1,0,0,1,.18.92ZM74,33.42V23.28a1.33,1.33,0,0,1,1.28-1.34h1.49A1.3,1.3,0,0,1,78,23.28V33.42a1.3,1.3,0,0,1-.36.94,1.32,1.32,0,0,1-.92.4H75.28a1.45,1.45,0,0,1-.51-.1,1.36,1.36,0,0,1-.71-.73A1.44,1.44,0,0,1,74,33.42Zm6,0V15.91A1.44,1.44,0,0,1,80,15.4a1.21,1.21,0,0,1,.27-.43,1.25,1.25,0,0,1,.42-.3,1.45,1.45,0,0,1,.5-.11h1.53a1.35,1.35,0,0,1,.5.11,1.15,1.15,0,0,1,.42.3,1.23,1.23,0,0,1,.28.43,1.44,1.44,0,0,1,.09.51V33.42a1.48,1.48,0,0,1-.09.51,1.33,1.33,0,0,1-.28.43,1.37,1.37,0,0,1-.42.29,1.18,1.18,0,0,1-.5.11H81.23a1.25,1.25,0,0,1-.5-.11,1.5,1.5,0,0,1-.42-.29,1.3,1.3,0,0,1-.27-.43A1.48,1.48,0,0,1,80,33.42ZM52.72,15.61c-1.92,0-1.9,0-2.35,1.88-.08.37-.19.73-.26,1.09a1,1,0,0,0,1,1.32,2.27,2.27,0,0,0,2.53-1.33l.78-1.42c.53-1,.23-1.51-.92-1.54Z"/></svg>