<?xml version="1.0" encoding="utf-8"?>
<!-- Generator: Adobe Illustrator 24.1.0, SVG Export Plug-In . SVG Version: 6.00 Build 0)  -->
<svg version="1.1" id="Capa_1" xmlns="http://www.w3.org/2000/svg" xmlns:xlink="http://www.w3.org/1999/xlink" x="0px" y="0px"
	 viewBox="0 0 85 36" style="enable-background:new 0 0 85 36;" xml:space="preserve">
<style type="text/css">
	.st0{fill:#FFFFFF;}
</style>
<g>
	<g>
		<path class="st0" d="M76.2,12.2C74,5.7,68.5,0.8,61,0.9c-8.3-0.1-18.7,5.9-25.5,14.8C42.6,6.8,52.9,1.5,60.7,2
			C67.6,2.3,72.2,7,74,13.1L76.2,12.2z"/>
		<path class="st0" d="M65.8,12.3c-2.6-5.6-8-9.5-15-9.3C43,3.1,34,8.3,28.6,15.6C34.2,8.4,43.1,3.8,50.4,4C56.9,4,61.7,7.7,63.9,13
			L65.8,12.3z"/>
		<path class="st0" d="M82.8,12.4C80,6.3,74,2.4,66.1,2.8C57.6,3.1,48,8.5,42.4,15.7c5.9-7.1,15.3-12.1,23.4-12
			c7.3-0.1,12.7,3.9,15.1,9.5L82.8,12.4z"/>
	</g>
	<path class="st0" d="M6.4,14.2h3.5L5.7,27.4h6.8l-0.8,2.5H1.5L6.4,14.2z"/>
	<path class="st0" d="M17.6,18.4h3.3l-3.6,11.5H14L17.6,18.4z M19,14.2h3.3l-0.9,2.9H18L19,14.2z"/>
	<path class="st0" d="M24.5,14.3h3.4l-1.8,5.2v0l0,0h0l0,0c0.9-0.8,2.1-1.5,3.5-1.5c3.2,0,4.5,2,4.3,4.7c-0.3,3.6-2.8,7.4-7.2,7.4
		c-1.8,0-2.6-0.3-3.5-1.9h0l-0.5,1.6h-3.1L24.5,14.3z M30.5,22.9c0.1-1.4-0.6-2.5-2.1-2.5c-2.2,0-3.7,2.7-3.9,4.7
		c-0.1,1.5,0.4,2.7,2,2.7C29.3,27.8,30.4,24.7,30.5,22.9z"/>
	<path class="st0" d="M38.2,25.1c-0.2,2.1,1,2.9,3.3,2.9c1.4,0,2.7-0.3,4-0.8l-0.6,2.4c-1.3,0.4-2.7,0.7-4.1,0.7c-3.7,0-6-1.6-5.7-5
		c0.3-3.6,3.6-7,7.8-7c3.1,0,5.1,1.5,4.9,4.4c-0.1,0.9-0.3,1.7-0.5,2.6H38.2z M44.5,23c0.1-0.3,0.1-0.5,0.1-0.8
		c0.1-1.2-0.6-1.9-2-1.9c-2.1,0-3,1.1-3.8,2.7L44.5,23L44.5,23z"/>
	<path class="st0" d="M50.9,19.9c0.1-0.5,0.3-1,0.4-1.5h3.2l-0.6,2.2h0c0.7-1.3,2.4-2.4,3.9-2.4c0.4,0,1.3,0,1.3,0l-0.9,2.8
		c0,0-1.3,0-1.7,0c-2.4,0.2-3.2,1.9-3.7,3.8l-1.6,5.2h-3.3L50.9,19.9z"/>
	<path class="st0" d="M60.7,18.2h2.4l0.7-2.4l3.8-1.5l-1.2,3.9h3l-0.9,2.8h-3L64,25.6c-0.1,0.3-0.2,0.7-0.2,1.1
		c-0.1,0.7,0.4,1.1,1.2,1.1c0.6,0,1.3,0,1.7-0.1l-0.8,2.4c-0.6,0.1-1.3,0.1-1.8,0.1c-2.2,0-3.8-0.8-3.6-3c0.1-0.9,0.3-1.8,0.6-2.7
		l1.1-3.5h-2.4L60.7,18.2z"/>
	<path class="st0" d="M68.8,35.1c-0.8,0.1-1.7,0-2.5-0.1l0.8-2.4c0.4,0.1,0.9,0.2,1.6,0.1c1-0.1,1.5-0.6,2.8-2.2l-1.3-12.1h3.4v0
		l0.5,8.6h0l5.7-8.6h3.6l-9.7,13.3C72.7,33.1,71.6,34.7,68.8,35.1"/>
</g>
</svg>
