<?xml version="1.0" encoding="utf-8"?>
<!-- Generator: Adobe Illustrator 24.1.0, SVG Export Plug-In . SVG Version: 6.00 Build 0)  -->
<svg version="1.1" id="Capa_1" xmlns="http://www.w3.org/2000/svg" xmlns:xlink="http://www.w3.org/1999/xlink" x="0px" y="0px"
	 viewBox="0 0 226 36" style="enable-background:new 0 0 226 36;" xml:space="preserve">
<style type="text/css">
	.st0{fill:#FFFFFF;}
</style>
<g>
	<path class="st0" d="M56,15c-2.1,1.3-4.8,0.6-6.1-1.5c-1.4-2.4-3.9-4-6.6-4.3l0,0c-0.4-0.1-0.8-0.1-1.1-0.1c-0.4,0-0.8,0-1.1,0.1
		l0,0c-2,0.2-3.9,1.2-5.4,2.7c0.1-1.1-0.1-2.3-0.7-3.3c-1-1.8-2.4-3.3-3.9-4.6c3.1-2.4,7-3.8,11-3.8c6.3,0,12.1,3.2,15.4,8.7
		C58.8,11,58.1,13.7,56,15"/>
	<path class="st0" d="M37.4,18.5v12.9c0,2.5,2,4.5,4.4,4.5c2.5,0,4.4-2,4.4-4.5V18.5c0-2.5-2-4.5-4.4-4.5C39.4,14,37.4,16,37.4,18.5
		"/>
	<path class="st0" d="M1.3,20.5C2.7,30.2,11.7,37,21.4,35.7c4.5-0.6,8.6-2.8,11.2-6.3c0.7-0.9,0.9-1.2,1.7-2.8
		c0.4-0.8,0.4-2.1,0.2-2.8c-0.3-1-1-2.2-2.5-2.8c-0.8-0.3-1.8-0.4-2.5-0.3c-2,0.4-3,2-3.7,2.9c-1.4,1.7-3.4,2.9-5.7,3.2
		c-4.9,0.7-9.4-2.7-10.1-7.6c-0.7-4.9,2.7-9.4,7.6-10.1c3.6-0.5,7,1.2,8.9,4.3c1.3,2.1,4,2.8,6.1,1.5s2.8-4,1.5-6.1
		c-3.7-6.2-10.7-9.5-17.8-8.5C6.8,1.7,0,10.7,1.3,20.5"/>
	<path class="st0" d="M82.2,25.7c-0.4-0.3-0.9-0.2-1.2,0.2c-1.6,1.9-3.6,2.8-6,2.8c-2.2,0-4-0.7-5.4-2.1s-2.1-3.1-2.1-5.2
		c0-1.4,0.3-2.6,1-3.7c0.6-1.1,1.5-2,2.7-2.6c1.2-0.7,2.4-1,3.8-1c1.2,0,2.4,0.2,3.4,0.8c1,0.5,1.9,1.2,2.7,2.2l0,0
		c0.3,0.4,0.8,0.4,1.2,0.1c0.4-0.3,0.4-0.8,0.2-1.2l-0.1-0.1c-0.8-1.1-1.8-1.9-3-2.5c-1.3-0.6-2.7-0.9-4.3-0.9
		c-2.6,0-4.8,0.8-6.6,2.6c-1.7,1.7-2.6,3.8-2.6,6.3c0,2.4,0.7,4.4,2.2,6.1c1.7,2,4.1,3,7.1,3c1.6,0,3-0.3,4.3-0.9
		c1.2-0.6,2.2-1.4,3.1-2.4l0.1-0.1C82.6,26.5,82.5,26,82.2,25.7z M154.2,13.3L154.2,13.3c0-0.5-0.4-0.9-0.8-0.9h-8.6
		c-0.4,0-0.8,0.4-0.8,0.8v16.4c0,0.4,0.4,0.8,0.8,0.8h8.6c0.5,0,0.8-0.4,0.8-0.8v-0.1c0-0.5-0.4-0.8-0.8-0.8h-7.6v-7.1h7.6
		c0.5,0,0.8-0.4,0.8-0.8v-0.1c0-0.5-0.4-0.8-0.8-0.8h-7.6v-5.6h7.6C153.8,14.1,154.2,13.7,154.2,13.3z M130,28.6V13.2
		c0-0.5-0.4-0.8-0.8-0.8H129c-0.5,0-0.8,0.4-0.8,0.8v16.3c0,0.4,0.4,0.8,0.8,0.8h7.1c0.5,0,0.8-0.4,0.8-0.8v-0.1
		c0-0.5-0.4-0.8-0.8-0.8H130z M120.1,23.2c-0.3-0.6-0.7-1.1-1.2-1.5s-1.2-0.8-2.2-1.1c0.7-0.4,1.3-0.9,1.7-1.6
		c0.4-0.7,0.6-1.4,0.6-2.2c0-0.9-0.2-1.6-0.7-2.3c-0.4-0.7-1.1-1.2-1.8-1.6c-0.8-0.3-1.9-0.5-3.3-0.5h-2.5c-0.6,0-1.1,0.5-1.1,1.1
		v15.8c0,0.6,0.5,1.1,1.1,1.1h3.8c1.8,0,3.2-0.5,4.2-1.5s1.6-2.2,1.6-3.7C120.5,24.5,120.4,23.8,120.1,23.2z M111.5,14.1h2.1
		c1.3,0,2.2,0.2,2.7,0.7c0.6,0.5,0.8,1.1,0.9,1.9c0,0.5-0.1,1-0.3,1.4c-0.3,0.7-0.9,1.1-1.6,1.4c-0.6,0.2-1.5,0.3-2.7,0.3h-1
		L111.5,14.1L111.5,14.1z M118.1,27c-0.4,0.5-0.9,1-1.5,1.2c-0.6,0.3-1.6,0.4-2.9,0.4h-2.2v-6.9h1c1.5,0,2.6,0.1,3.2,0.2
		c0.9,0.2,1.6,0.6,2.2,1.2c0.5,0.6,0.8,1.3,0.8,2.1C118.6,25.8,118.5,26.4,118.1,27z"/>
	<path class="st0" d="M224,30.3h-0.1c-0.3,0-0.6-0.2-0.8-0.5l-5.9-13.2c-0.1-0.2-0.3-0.2-0.4,0l-5.9,13.2c-0.1,0.3-0.4,0.5-0.8,0.5
		h-0.2c-0.6,0-1-0.6-0.8-1.2l7.5-16.6c0.1-0.1,0.2-0.2,0.3-0.2s0.2,0.1,0.3,0.2l7.4,16.6C225,29.7,224.6,30.3,224,30.3 M162.5,14.1
		h3.2v15.4c0,0.5,0.4,0.8,0.8,0.8h0.2c0.5,0,0.8-0.4,0.8-0.8V14.1h3.2c0.5,0,0.8-0.4,0.8-0.8v-0.1c0-0.5-0.4-0.8-0.8-0.8h-8.2
		c-0.5,0-0.8,0.4-0.8,0.8v0.1C161.7,13.7,162.1,14.1,162.5,14.1 M180.4,30.3h0.1c0.5,0,0.8-0.4,0.8-0.8V13.2c0-0.5-0.4-0.8-0.8-0.8
		h-0.1c-0.5,0-0.8,0.4-0.8,0.8v16.3C179.5,29.9,179.9,30.3,180.4,30.3 M204.4,25.7c-0.4-0.3-0.9-0.2-1.2,0.2c-1.6,1.9-3.6,2.8-6,2.8
		c-2.2,0-4-0.7-5.4-2.1s-2.1-3.1-2.1-5.2c0-1.4,0.3-2.6,1-3.7c0.6-1.1,1.5-2,2.7-2.6c1.2-0.7,2.4-1,3.8-1c1.2,0,2.4,0.2,3.4,0.8
		c1,0.5,1.9,1.2,2.7,2.2l0,0c0.3,0.4,0.8,0.4,1.2,0.2c0.4-0.3,0.5-0.8,0.2-1.2l-0.1-0.1c-0.8-1.1-1.8-1.9-3-2.5
		c-1.3-0.6-2.7-0.9-4.3-0.9c-2.6,0-4.8,0.9-6.6,2.6c-1.7,1.7-2.6,3.8-2.6,6.3c0,2.4,0.7,4.4,2.2,6.1c1.7,2,4.1,3,7.1,3
		c1.6,0,3-0.3,4.3-0.9c1.2-0.6,2.2-1.4,3.1-2.4l0.1-0.1C204.9,26.5,204.8,26,204.4,25.7"/>
	<path class="st0" d="M94.7,16.6l-6,13.2c-0.1,0.3-0.4,0.5-0.7,0.5h-0.3c-0.6,0-1-0.6-0.7-1.1l7.6-16.6c0.1-0.1,0.2-0.2,0.3-0.2
		c0.1,0,0.3,0.1,0.3,0.2l7.5,16.6c0.2,0.5-0.1,1.1-0.7,1.1h-0.2c-0.3,0-0.6-0.2-0.7-0.5l-5.9-13.2C95,16.4,94.8,16.4,94.7,16.6"/>
</g>
</svg>
